<svg xmlns="http://www.w3.org/2000/svg" viewBox="0 0 512 512"><rect width="344.48" height="481.18" x="83.76" y="15.41" fill="#fff" rx="48.18" ry="48.18"/><path fill="navy" d="M380.06.41h-174.83c-8.28,0-15,6.72-15,15h0c0,8.28,6.72,15,15,15h174.83c18.32,0,33.18,14.86,33.18,33.18v384.82c0,18.32-14.86,33.18-33.18,33.18h-248.12c-18.32,0-33.18-14.86-33.18-33.18V63.59c0-18.32,14.86-33.18,33.18-33.18h13.29c8.28,0,15-6.72,15-15h0c0-8.28-6.72-15-15-15h-13.29c-34.89,0-63.18,28.29-63.18,63.18v384.82c0,34.89,28.29,63.18,63.18,63.18h248.12c34.89,0,63.18-28.29,63.18-63.18V63.59c0-34.89-28.29-63.18-63.18-63.18Z"/><circle cx="256" cy="182.12" r="58.09" fill="#fff"/><path fill="navy" d="M256,255.21c-40.3,0-73.09-32.79-73.09-73.09s32.79-73.09,73.09-73.09,73.09,32.79,73.09,73.09-32.79,73.09-73.09,73.09ZM256,139.03c-23.76,0-43.09,19.33-43.09,43.09s19.33,43.09,43.09,43.09,43.09-19.33,43.09-43.09-19.33-43.09-43.09-43.09Z"/><path fill="#4097ff" d="M256,263.73h0c49.09,0,88.94,39.85,88.94,88.94v35.29h-177.88v-35.29c0-49.09,39.85-88.94,88.94-88.94Z"/><path fill="navy" d="M344.94,402.97h-177.88c-8.28,0-15-6.72-15-15v-35.29c0-57.31,46.63-103.94,103.94-103.94s103.94,46.63,103.94,103.94v35.29c0,8.28-6.72,15-15,15ZM182.06,372.97h147.88v-20.29c0-40.77-33.17-73.94-73.94-73.94s-73.94,33.17-73.94,73.94v20.29Z"/><rect width="95.77" height="30" x="208.12" y="332.59" fill="#1b6fea" rx="15" ry="15"/><path fill="#bbd7ff" d="M353.76,462.53h-2.65c-8.28,0-15-6.72-15-15s6.72-15,15-15h2.65c9.54,0,17.29-7.76,17.29-17.29v-2.65c0-8.28,6.72-15,15-15s15,6.72,15,15v2.65c0,26.08-21.22,47.29-47.29,47.29Z"/></svg>