<?xml version="1.0" encoding="utf-8"?>
<!-- Generator: Adobe Illustrator 16.0.0, SVG Export Plug-In . SVG Version: 6.00 Build 0)  -->
<!DOCTYPE svg PUBLIC "-//W3C//DTD SVG 1.1//EN" "http://www.w3.org/Graphics/SVG/1.1/DTD/svg11.dtd">
<svg version="1.1" id="Layer_1" xmlns="http://www.w3.org/2000/svg" xmlns:xlink="http://www.w3.org/1999/xlink" x="0px" y="0px"
	 width="24px" height="24px" viewBox="0 0 24 24" enable-background="new 0 0 24 24" xml:space="preserve">
<g>
	<g id="Lozenge_4_">
		<g>
			<path d="M12,20.6C12,20.6,12,20.6,12,20.6c-0.2,0-5.8-0.1-7.5-0.2c-0.1,0-0.2,0-0.3,0c-0.6-0.1-1.6-0.2-2.4-1.1
				c-0.7-0.8-1-2.4-1-2.5c0-0.1-0.2-1.9-0.2-3.8v-1.7c0-1.9,0.2-3.7,0.2-3.8c0-0.2,0.3-1.8,1-2.6c0.9-1,1.9-1.1,2.4-1.1l0.1,0
				c3.1-0.2,7.7-0.2,7.8-0.2c0.1,0,4.7,0,7.7,0.2l0.1,0c0.5,0,1.5,0.1,2.4,1.1c0.7,0.8,1,2.4,1,2.5c0,0.1,0.2,1.9,0.2,3.8v1.7
				c0,1.9-0.2,3.7-0.2,3.8c0,0.2-0.3,1.8-1,2.6c-0.9,1-1.9,1.1-2.4,1.1l-0.1,0C16.7,20.6,12,20.6,12,20.6z M12,4.4
				c-0.1,0-4.6,0-7.7,0.2l-0.1,0c-0.4,0-1.1,0.1-1.8,0.8C2,6,1.8,7.1,1.7,7.5c0,0-0.2,1.8-0.2,3.6v1.7c0,1.8,0.2,3.6,0.2,3.7
				c0.1,0.4,0.3,1.5,0.7,2c0.6,0.6,1.3,0.7,1.8,0.8c0.1,0,0.2,0,0.3,0c1.7,0.2,7.2,0.2,7.4,0.2c0.1,0,4.7,0,7.7-0.2l0.1,0
				c0.4,0,1.1-0.1,1.7-0.8c0.5-0.5,0.7-1.6,0.7-2c0,0,0.2-1.8,0.2-3.6v-1.7c0-1.8-0.2-3.6-0.2-3.7c-0.1-0.4-0.3-1.5-0.7-2
				c-0.6-0.7-1.3-0.8-1.8-0.8l-0.1,0C16.6,4.4,12.1,4.4,12,4.4z M9.7,15.5c-0.1,0-0.2,0-0.3-0.1c-0.2-0.1-0.2-0.3-0.2-0.4l0-6.4
				c0-0.2,0.1-0.3,0.2-0.4C9.6,8,9.8,8,10,8.1l5.9,3.2c0.2,0.1,0.3,0.3,0.3,0.4c0,0.2-0.1,0.4-0.3,0.4L10,15.4
				C9.9,15.5,9.8,15.5,9.7,15.5z M10.2,9.4l0,4.8l4.4-2.4L10.2,9.4z"/>
		</g>
	</g>
</g>
</svg>
